<svg width="56" height="57" viewBox="0 0 56 57" fill="none" xmlns="http://www.w3.org/2000/svg">
<rect x="6.48578" y="6.73804" width="41.4631" height="41.885" fill="white"/>
<rect x="6.48578" y="6.73804" width="41.4631" height="41.885" fill="white"/>
<path d="M56 0L50.7492 51.4579L27.9996 57L5.24972 51.4579L0 0H56ZM45.4193 10.4632H27.9792H10.23L11.0789 16.6772H27.9792H28.9285L27.9792 17.0347L11.6966 23.1704L12.2366 29.2445L27.9792 29.2906L36.4167 29.3148L35.8766 37.4138L27.979 39.4255V39.4192L27.9143 39.4355L20.2872 37.6934L19.8244 32.666H19.7991H12.7247H12.6997L13.6258 42.3714L27.9793 46.2118V46.2049L28.0052 46.2118L42.2818 42.4413L44.1337 23.1704H27.9793H27.9395L27.9793 23.1548L44.7255 16.6772L45.4193 10.4632Z" fill="#33AADD"/>
<path d="M56 0L50.7492 51.4579L27.9996 57L5.24972 51.4579L0 0H56ZM45.4193 10.4632H27.9792H10.23L11.0789 16.6772H27.9792H28.9285L27.9792 17.0347L11.6966 23.1704L12.2366 29.2445L27.9792 29.2906L36.4167 29.3148L35.8766 37.4138L27.979 39.4255V39.4192L27.9143 39.4355L20.2872 37.6934L19.8244 32.666H19.7991H12.7247H12.6997L13.6258 42.3714L27.9793 46.2118V46.2049L28.0052 46.2118L42.2818 42.4413L44.1337 23.1704H27.9793H27.9395L27.9793 23.1548L44.7255 16.6772L45.4193 10.4632Z" fill="#33AADD"/>
</svg>
