<svg width="38" height="57" viewBox="0 0 38 57" fill="none" xmlns="http://www.w3.org/2000/svg">
<path fill-rule="evenodd" clip-rule="evenodd" d="M19 28.5C19 23.2534 23.2534 19 28.5 19C33.7466 19 38 23.2534 38 28.5C38 33.7466 33.7466 38 28.5 38C23.2534 38 19 33.7466 19 28.5Z" fill="#1ABCFE"/>
<path fill-rule="evenodd" clip-rule="evenodd" d="M0 47.5C0 42.2534 4.25329 38 9.5 38H19V47.5C19 52.7466 14.7466 57 9.5 57C4.25329 57 0 52.7466 0 47.5Z" fill="#0ACF83"/>
<path fill-rule="evenodd" clip-rule="evenodd" d="M19 0V19H28.5C33.7466 19 38 14.7466 38 9.5C38 4.25329 33.7466 0 28.5 0H19Z" fill="#FF7262"/>
<path fill-rule="evenodd" clip-rule="evenodd" d="M0 9.5C0 14.7466 4.25329 19 9.5 19H19V0H9.5C4.25329 0 0 4.25329 0 9.5Z" fill="#F24E1E"/>
<path fill-rule="evenodd" clip-rule="evenodd" d="M0 28.5C0 33.7466 4.25329 38 9.5 38H19V19H9.5C4.25329 19 0 23.2534 0 28.5Z" fill="#A259FF"/>
</svg>
