<svg width="52" height="57" viewBox="0 0 52 57" fill="none" xmlns="http://www.w3.org/2000/svg">
<rect x="6.93834" y="6.73801" width="37.5144" height="41.885" fill="white"/>
<path fill-rule="evenodd" clip-rule="evenodd" d="M41.14 17.1H41.1197H16.5641L17.1514 22.8H40.5557C40.2127 27.7932 39.1749 38.3719 38.794 43.1856L25.6485 46.8858V46.897L25.6195 46.9109L12.4653 42.2824L11.5641 31.35H18.0118L18.4682 37.2295L25.6311 39.9H25.6485L32.7998 37.3353L33.5353 28.5H11.2763C11.1687 27.3571 9.78499 12.5172 9.54371 11.4H41.7156C41.5354 13.281 41.3522 15.2133 41.14 17.1ZM0 0L4.66866 51.7217L25.6195 57L46.6255 51.6159L51.3 0H0Z" fill="#F16529"/>
</svg>
