<svg width="57" height="57" viewBox="0 0 57 57" fill="none" xmlns="http://www.w3.org/2000/svg">
<path d="M0 2.96178C0 1.32604 1.32604 0 2.96178 0H54.0382C55.674 0 57 1.32604 57 2.96178V54.0382C57 55.674 55.674 57 54.0382 57H2.96178C1.32604 57 0 55.674 0 54.0382V2.96178Z" fill="#F7DF1E"/>
<path d="M14.9874 47.6333L19.3493 44.9935C20.1909 46.4856 20.9564 47.748 22.7927 47.748C24.5527 47.748 25.6627 47.0596 25.6627 44.3815V26.1686H31.0191V44.4572C31.0191 50.0051 27.767 52.5304 23.0222 52.5304C18.7372 52.5304 16.2499 50.3112 14.9872 47.6329M33.9286 47.0593L38.29 44.5342C39.4382 46.4092 40.9305 47.7865 43.5703 47.7865C45.7899 47.7865 47.2051 46.6768 47.2051 45.1463C47.2051 43.3098 45.7512 42.6592 43.3024 41.5882L41.9636 41.0138C38.0989 39.369 35.5355 37.3028 35.5355 32.9409C35.5355 28.9233 38.5963 25.8622 43.3792 25.8622C46.7845 25.8622 49.2333 27.0486 50.9932 30.1477L46.8224 32.8263C45.9039 31.1811 44.9095 30.5307 43.379 30.5307C41.8102 30.5307 40.8153 31.5255 40.8153 32.8263C40.8153 34.4332 41.8102 35.084 44.1058 36.0788L45.4448 36.6526C49.9981 38.6042 52.5616 40.5936 52.5616 45.0699C52.5616 49.8913 48.7737 52.5311 43.6849 52.5311C38.711 52.5311 35.497 50.1589 33.9284 47.0596" fill="black"/>
</svg>
