<svg width="103" height="103" viewBox="0 0 103 103" fill="none" xmlns="http://www.w3.org/2000/svg">
<g clip-path="url(#clip0_39_227)">
<path d="M47.8789 74.7333C47.0455 74.7333 46.3701 75.4088 46.3701 76.2421C46.3701 77.0753 47.0455 77.7509 47.8789 77.7509H55.1211C55.9545 77.7509 56.6299 77.0753 56.6299 76.2421C56.6299 75.4088 55.9545 74.7333 55.1211 74.7333H47.8789Z" fill="#505081"/>
<path d="M18.1055 51.3057H28.0788C28.6879 52.8911 30.2227 54.0215 32.0199 54.0215C33.8172 54.0215 35.3519 52.8911 35.9611 51.3057H37.9545C38.788 51.3057 39.4633 50.6301 39.4633 49.7969C39.4633 48.9636 38.788 48.2881 37.9545 48.2881H35.9611C35.3519 46.7027 33.8172 45.5723 32.0199 45.5723C30.2227 45.5723 28.6879 46.7027 28.0788 48.2881H18.1055C17.272 48.2881 16.5967 48.9636 16.5967 49.7969C16.5967 50.6301 17.272 51.3057 18.1055 51.3057ZM32.0199 48.5898C32.6856 48.5898 33.227 49.1312 33.227 49.7969C33.227 50.4626 32.6856 51.0039 32.0199 51.0039C31.3542 51.0039 30.8129 50.4626 30.8129 49.7969C30.8129 49.1312 31.3542 48.5898 32.0199 48.5898Z" fill="#505081"/>
<path d="M18.1055 42.6553H20.0319C20.641 44.2407 22.1758 45.3711 23.973 45.3711C25.7703 45.3711 27.3051 44.2407 27.9142 42.6553H37.9545C38.788 42.6553 39.4633 41.9797 39.4633 41.1465C39.4633 40.3132 38.788 39.6377 37.9545 39.6377H27.9142C27.3051 38.0523 25.7703 36.9219 23.973 36.9219C22.1758 36.9219 20.641 38.0523 20.0319 39.6377H18.1055C17.272 39.6377 16.5967 40.3132 16.5967 41.1465C16.5967 41.9797 17.272 42.6553 18.1055 42.6553ZM23.973 39.9395C24.6387 39.9395 25.1801 40.4808 25.1801 41.1465C25.1801 41.8122 24.6387 42.3535 23.973 42.3535C23.3074 42.3535 22.766 41.8122 22.766 41.1465C22.766 40.4808 23.3074 39.9395 23.973 39.9395Z" fill="#505081"/>
<path d="M38.2563 28.7744C39.0895 28.7744 39.765 28.0989 39.765 27.2656C39.765 26.4323 39.0895 25.7568 38.2563 25.7568C37.423 25.7568 36.7475 26.4323 36.7475 27.2656C36.7475 28.0989 37.423 28.7744 38.2563 28.7744Z" fill="#505081"/>
<path d="M34.0986 28.7744C34.9319 28.7744 35.6074 28.0989 35.6074 27.2656C35.6074 26.4323 34.9319 25.7568 34.0986 25.7568C33.2654 25.7568 32.5898 26.4323 32.5898 27.2656C32.5898 28.0989 33.2654 28.7744 34.0986 28.7744Z" fill="#505081"/>
<path d="M29.941 28.7744C30.7743 28.7744 31.4498 28.0989 31.4498 27.2656C31.4498 26.4323 30.7743 25.7568 29.941 25.7568C29.1077 25.7568 28.4322 26.4323 28.4322 27.2656C28.4322 28.0989 29.1077 28.7744 29.941 28.7744Z" fill="#505081"/>
<path d="M98.4736 10.1558H97.9085L98.33 9.7343C99.5924 8.47195 99.5924 6.41778 98.33 5.15543L95.0272 1.85259C93.7648 0.590437 91.7108 0.590437 90.4483 1.85259L82.1457 10.1556H4.52637C2.03063 10.1556 0 12.186 0 14.6819V77.3397C0 80.3903 2.48166 82.8719 5.53223 82.8719H41.2694V93.5451H33.998C32.0569 93.5451 30.4775 95.1245 30.4775 97.0656V98.5732C30.4775 100.514 32.0569 102.094 33.998 102.094H69.002C70.9431 102.094 72.5225 100.514 72.5225 98.5732V97.0656C72.5225 95.1245 70.9431 93.5451 69.002 93.5451H61.7306V82.8719H77.8535C78.687 82.8719 79.3623 82.1964 79.3623 81.3631C79.3623 80.5299 78.687 79.8544 77.8535 79.8544H5.53223C4.14555 79.8544 3.01758 78.7264 3.01758 77.3397V72.8737H99.9824V77.3397C99.9824 78.7264 98.8545 79.8544 97.4678 79.8544H84.8945C84.0611 79.8544 83.3857 80.5299 83.3857 81.3631C83.3857 82.1964 84.0611 82.8719 84.8945 82.8719H97.4678C100.518 82.8719 103 80.3903 103 77.3397V14.6821C103 12.1864 100.969 10.1558 98.4736 10.1558ZM69.002 96.5629C69.2794 96.5629 69.5049 96.7886 69.5049 97.0658V98.5734C69.5049 98.8506 69.2794 99.0763 69.002 99.0763H33.998C33.7206 99.0763 33.4951 98.8506 33.4951 98.5734V97.0658C33.4951 96.7886 33.7206 96.5629 33.998 96.5629H69.002ZM44.287 82.8723H58.7132V93.5455H44.287V82.8723ZM92.5821 3.98662C92.6682 3.90072 92.8078 3.90092 92.8935 3.98662L96.1962 7.28926C96.2821 7.37516 96.2821 7.51497 96.1962 7.60067L93.0448 10.752L89.4308 7.13798L92.5821 3.98662ZM87.2969 9.27181L90.9108 12.8859L89.8584 13.9382L86.2446 10.3241L87.2969 9.27181ZM84.1108 12.458L87.7248 16.072L69.8706 33.9262L66.2566 30.3122L84.1108 12.458ZM81.877 26.2521C83.9291 26.2521 85.5986 27.9216 85.5986 29.9738C85.5986 32.026 83.9291 33.6955 81.877 33.6955C79.8248 33.6955 78.1553 32.026 78.1553 29.9738C78.1553 29.9499 78.1585 29.9267 78.1589 29.9028L81.8065 26.2557C81.8301 26.2553 81.8532 26.2521 81.877 26.2521ZM67.2505 35.5738L62.7851 37.3976L64.609 32.9322L67.2505 35.5738ZM99.9824 69.8565H3.01758V14.6821C3.01758 13.8503 3.69432 13.1733 4.52637 13.1733H79.1283L76.8277 15.4739H25.5488C24.7154 15.4739 24.04 16.1495 24.04 16.9827C24.04 17.816 24.7154 18.4915 25.5488 18.4915H73.8104L63.1682 29.1343C62.8674 29.4377 62.6323 29.7917 62.4703 30.188L59.1001 38.4393C58.7909 39.1971 58.9651 40.0608 59.5439 40.6393C59.9323 41.0278 60.4489 41.2338 60.9758 41.2338C61.2341 41.2338 61.4946 41.1843 61.7439 41.0827L69.9949 37.7127C70.38 37.5554 70.7244 37.3276 71.0221 37.039L75.6121 32.4496C76.6008 34.944 79.035 36.7133 81.8772 36.7133C85.5932 36.7133 88.6164 33.69 88.6164 29.974C88.6164 27.1322 86.8475 24.6983 84.3536 23.7093L89.5718 18.4917H94.6642V64.5385H93.8646L88.3967 55.068C87.9803 54.3462 87.0569 54.0989 86.3357 54.5158C85.6141 54.9324 85.3669 55.8552 85.7835 56.5768L90.3803 64.5385H69.3035L67.0429 60.6231L77.5813 42.3702L82.2628 50.479C82.6796 51.2006 83.6024 51.4481 84.3238 51.0313C85.0454 50.6146 85.2926 49.6919 84.876 48.9703L79.8815 40.3197C79.4013 39.488 78.5415 38.9915 77.5811 38.9915C76.6207 38.9915 75.7607 39.488 75.2805 40.3197L65.3004 57.6058L52.495 35.4264C52.0148 34.5947 51.155 34.0982 50.1944 34.0982C49.2342 34.0982 48.3742 34.5947 47.894 35.4264L44.492 41.3189V25.1461C44.492 23.205 42.9126 21.6256 40.9715 21.6256H15.0879C13.1468 21.6256 11.5674 23.205 11.5674 25.1461V58.1383C11.5674 59.5249 12.6954 60.6529 14.082 60.6529H33.33L31.0865 64.5387H8.33596V18.4915H18.5078C19.3413 18.4915 20.0166 17.816 20.0166 16.9827C20.0166 16.1495 19.3413 15.4739 18.5078 15.4739H7.83303C6.44635 15.4739 5.31838 16.6019 5.31838 17.9886V65.0413C5.31838 66.4279 6.44635 67.5559 7.83303 67.5559H95.1672C96.5538 67.5559 97.6818 66.4279 97.6818 65.0413V17.9886C97.6818 16.6019 96.5538 15.4739 95.1672 15.4739H92.5898L94.8908 13.1733H98.4736C99.3057 13.1733 99.9824 13.8503 99.9824 14.6821V69.8565ZM41.475 33.5019V57.6349H14.585V33.5019H41.475ZM14.585 30.4844V25.1457C14.585 24.8685 14.8105 24.6427 15.0879 24.6427H40.9721C41.2495 24.6427 41.475 24.8685 41.475 25.1457V30.4844H14.585ZM36.8145 60.6525H41.9779C43.3646 60.6525 44.4926 59.5245 44.4926 58.1379V54.9418C44.87 55.1229 45.2902 55.2209 45.7304 55.2209C46.7604 55.2209 47.6826 54.6882 48.1974 53.7964L50.7651 49.3491C50.8428 49.2147 50.9615 49.1863 51.047 49.1863C51.1329 49.1863 51.2516 49.2147 51.329 49.3491L52.912 52.0908C53.427 52.983 54.3494 53.5155 55.3796 53.5155C56.4096 53.5155 57.332 52.983 57.8468 52.091L58.2399 51.4103L65.8192 64.5381H34.571L36.8145 60.6525ZM44.4926 49.8912V47.3536L50.1952 37.4767L56.4975 48.3927L55.3794 50.3292L53.9422 47.8401C53.3379 46.7934 52.2556 46.1685 51.0468 46.1685C49.8381 46.1685 48.7558 46.7934 48.1515 47.8401L45.7298 52.0345L44.4926 49.8912Z" fill="#505081"/>
</g>
<defs>
<clipPath id="clip0_39_227">
<rect width="103" height="103" fill="white"/>
</clipPath>
</defs>
</svg>
