<svg width="103" height="103" viewBox="0 0 103 103" fill="none" xmlns="http://www.w3.org/2000/svg">
<path d="M95.7578 11.2656H7.24219C5.74878 11.2673 4.31701 11.8613 3.26101 12.9173C2.20501 13.9733 1.61103 15.405 1.60938 16.8984V73.2266C1.61103 74.72 2.20501 76.1517 3.26101 77.2077C4.31701 78.2637 5.74878 78.8577 7.24219 78.8594H39.4659L37.5346 83.6875H28.9688C28.5419 83.6875 28.1326 83.8571 27.8307 84.1589C27.5289 84.4607 27.3594 84.87 27.3594 85.2969V88.5156H17.7031C17.2763 88.5156 16.8669 88.6852 16.5651 88.987C16.2633 89.2888 16.0938 89.6982 16.0938 90.125C16.0938 90.5518 16.2633 90.9612 16.5651 91.263C16.8669 91.5648 17.2763 91.7344 17.7031 91.7344H85.2969C85.7237 91.7344 86.1331 91.5648 86.4349 91.263C86.7367 90.9612 86.9062 90.5518 86.9062 90.125C86.9062 89.6982 86.7367 89.2888 86.4349 88.987C86.1331 88.6852 85.7237 88.5156 85.2969 88.5156H75.6406V85.2969C75.6406 84.87 75.4711 84.4607 75.1693 84.1589C74.8674 83.8571 74.4581 83.6875 74.0312 83.6875H65.4654L63.5341 78.8594H95.7578C97.2512 78.8577 98.683 78.2637 99.739 77.2077C100.795 76.1517 101.389 74.72 101.391 73.2266V16.8984C101.389 15.405 100.795 13.9733 99.739 12.9173C98.683 11.8613 97.2512 11.2673 95.7578 11.2656ZM72.4219 86.9062V88.5156H30.5781V86.9062H72.4219ZM41.0029 83.6875L42.9341 78.8594H60.0659L61.9971 83.6875H41.0029ZM98.1719 73.2266C98.1713 73.8666 97.9168 74.4804 97.4642 74.933C97.0116 75.3856 96.3979 75.6401 95.7578 75.6406H7.24219C6.6021 75.6401 5.98838 75.3856 5.53578 74.933C5.08317 74.4804 4.82866 73.8666 4.82812 73.2266V69.2031H98.1719V73.2266ZM98.1719 65.9844H4.82812V16.8984C4.82866 16.2584 5.08317 15.6446 5.53578 15.192C5.98838 14.7394 6.6021 14.4849 7.24219 14.4844H95.7578C96.3979 14.4849 97.0116 14.7394 97.4642 15.192C97.9168 15.6446 98.1713 16.2584 98.1719 16.8984V65.9844Z" fill="#505081"/>
<path d="M44.1793 52.8454C44.356 52.9614 44.5539 53.0414 44.7615 53.0809C44.9691 53.1204 45.1825 53.1186 45.3894 53.0756C45.5964 53.0327 45.7928 52.9494 45.9676 52.8305C46.1423 52.7116 46.292 52.5594 46.4079 52.3827L59.0817 33.0702C59.316 32.7134 59.3988 32.2781 59.3121 31.8602C59.2255 31.4422 58.9763 31.0759 58.6194 30.8416C58.2626 30.6074 57.8273 30.5245 57.4094 30.6112C56.9915 30.6979 56.6251 30.9471 56.3909 31.3039L43.717 50.6164C43.601 50.7931 43.5209 50.9909 43.4813 51.1986C43.4418 51.4063 43.4435 51.6197 43.4864 51.8267C43.5293 52.0337 43.6126 52.2302 43.7315 52.405C43.8504 52.5798 44.0026 52.7294 44.1793 52.8454Z" fill="#505081"/>
<path d="M61.7354 52.7364C62.0633 53.0096 62.4863 53.1414 62.9114 53.1027C63.3364 53.064 63.7287 52.8581 64.002 52.5302L72.0488 42.8739C72.2898 42.5847 72.4218 42.2202 72.4218 41.8437C72.4218 41.4673 72.2898 41.1027 72.0488 40.8135L64.002 31.1573C63.8671 30.9935 63.7012 30.8581 63.5138 30.7587C63.3264 30.6593 63.1213 30.598 62.9101 30.5781C62.6989 30.5583 62.4859 30.5805 62.2833 30.6433C62.0807 30.7061 61.8925 30.8083 61.7295 30.9441C61.5666 31.0798 61.432 31.2465 61.3337 31.4344C61.2354 31.6224 61.1752 31.8279 61.1566 32.0392C61.138 32.2505 61.1613 32.4634 61.2252 32.6656C61.2892 32.8679 61.3925 33.0555 61.5292 33.2177L68.7174 41.8437L61.5292 50.4698C61.2559 50.7977 61.1242 51.2207 61.1628 51.6458C61.2015 52.0709 61.4074 52.4632 61.7354 52.7364Z" fill="#505081"/>
<path d="M38.9979 52.5302C39.1328 52.6939 39.2987 52.8293 39.4861 52.9287C39.6735 53.0281 39.8786 53.0895 40.0898 53.1093C40.301 53.1291 40.514 53.107 40.7166 53.0442C40.9192 52.9814 41.1074 52.8792 41.2704 52.7434C41.4333 52.6076 41.5678 52.4409 41.6662 52.253C41.7645 52.0651 41.8247 51.8595 41.8433 51.6482C41.8619 51.4369 41.8386 51.2241 41.7747 51.0218C41.7107 50.8196 41.6074 50.632 41.4707 50.4698L34.2825 41.8437L41.4707 33.2177C41.6074 33.0555 41.7107 32.8679 41.7747 32.6656C41.8386 32.4634 41.8619 32.2505 41.8433 32.0392C41.8247 31.8279 41.7645 31.6224 41.6662 31.4344C41.5678 31.2465 41.4333 31.0798 41.2704 30.9441C41.1074 30.8083 40.9192 30.7061 40.7166 30.6433C40.514 30.5805 40.301 30.5583 40.0898 30.5781C39.8786 30.598 39.6735 30.6593 39.4861 30.7587C39.2987 30.8581 39.1328 30.9935 38.9979 31.1573L30.9511 40.8135C30.7101 41.1027 30.5781 41.4673 30.5781 41.8437C30.5781 42.2202 30.7101 42.5847 30.9511 42.8739L38.9979 52.5302Z" fill="#505081"/>
</svg>
