<svg width="103" height="103" viewBox="0 0 103 103" fill="none" xmlns="http://www.w3.org/2000/svg">
<path d="M45.0625 53.1094H57.9375V56.3281H45.0625V53.1094Z" fill="#505081"/>
<path d="M49.8906 48.2812H53.1094V61.1562H49.8906V48.2812Z" fill="#505081"/>
<path d="M91.7344 53.1094H94.9531V56.3281H91.7344V53.1094Z" fill="#505081"/>
<path d="M78.8594 53.1094H82.0781V56.3281H78.8594V53.1094Z" fill="#505081"/>
<path d="M85.2969 46.6719H88.5156V49.8906H85.2969V46.6719Z" fill="#505081"/>
<path d="M85.2969 59.5469H88.5156V62.7656H85.2969V59.5469Z" fill="#505081"/>
<path d="M14.8372 28.3652L7.59503 19.3125L14.8372 10.2598L17.3503 12.2715L11.7175 19.3125L17.3503 26.3535L14.8372 28.3652Z" fill="#505081"/>
<path d="M39.8815 28.3652L37.3685 26.3535L43.0029 19.3125L37.3685 12.2715L39.8815 10.2598L47.1222 19.3125L39.8815 28.3652Z" fill="#505081"/>
<path d="M20.5132 24.6884L31.782 11.8165L34.2039 13.9359L22.9352 26.8085L20.5132 24.6884Z" fill="#505081"/>
<path d="M12.875 70.8125H6.4375V64.375H9.65625V67.5938H12.875V70.8125Z" fill="#505081"/>
<path d="M98.1719 3.21875H4.82812C2.16181 3.21875 0 5.38056 0 8.04688V72.4219C0 75.0882 2.16181 77.25 4.82812 77.25H38.625V85.2969C38.625 87.9632 36.4632 90.125 33.7969 90.125H25.75V99.7812H77.25V90.125H69.2031C66.5368 90.125 64.375 87.9632 64.375 85.2969V77.25H98.1719C100.838 77.25 103 75.0882 103 72.4219V8.04688C103 5.38056 100.838 3.21875 98.1719 3.21875ZM74.0312 93.3438V96.5625H28.9688V93.3438H74.0312ZM51.5 86.9738C54.1663 86.9738 56.3281 84.812 56.3281 82.1457V77.25H61.1562V85.2969C61.1625 87.0438 61.7425 88.7404 62.8073 90.125H40.1927C41.2575 88.7404 41.8375 87.0438 41.8438 85.2969V77.25H46.6719V82.1457C46.6719 84.812 48.8337 86.9738 51.5 86.9738ZM49.8906 82.1457V77.25H53.1094V82.1457C53.1094 83.0345 52.3888 83.7551 51.5 83.7551C50.6112 83.7551 49.8906 83.0345 49.8906 82.1457ZM99.7812 72.4219C99.7812 73.3106 99.0606 74.0312 98.1719 74.0312H4.82812C3.93935 74.0312 3.21875 73.3106 3.21875 72.4219V57.9375H35.7284C37.0612 64.4889 42.3074 69.5324 48.9068 70.605C55.5054 71.6785 62.0796 68.5572 65.4194 62.7656H72.9837C75.6807 67.4547 80.5591 70.4699 85.9593 70.7858C91.3595 71.1017 96.5554 68.6758 99.7812 64.3334V72.4219ZM86.9062 67.5938C82.0145 67.6055 77.5439 64.8284 75.386 60.4388L74.9405 59.5469H63.4658L63.0202 60.4388C60.1975 66.1298 53.6461 68.9124 47.5913 66.991C41.5357 65.0689 37.7873 59.0188 38.7633 52.7408C39.7385 46.4636 45.1474 41.8367 51.5 41.8438H86.9062C94.0172 41.8438 99.7812 47.6078 99.7812 54.7188C99.7812 61.8297 94.0172 67.5938 86.9062 67.5938ZM99.7812 45.1041C96.7542 41.032 91.9803 38.6297 86.9062 38.625H51.5C42.6154 38.6344 35.4157 45.8342 35.4062 54.7188H3.21875V8.04688C3.21875 7.1581 3.93935 6.4375 4.82812 6.4375H98.1719C99.0606 6.4375 99.7812 7.1581 99.7812 8.04688V45.1041Z" fill="#505081"/>
<path d="M65.9844 53.1094H72.4219V56.3281H65.9844V53.1094Z" fill="#505081"/>
<path d="M48.2812 12.875H61.1562V16.0938H48.2812V12.875Z" fill="#505081"/>
<path d="M67.5938 12.875H93.3438V16.0938H67.5938V12.875Z" fill="#505081"/>
<path d="M70.8125 19.3125H93.3438V22.5312H70.8125V19.3125Z" fill="#505081"/>
<path d="M51.5 19.3125H64.375V22.5312H51.5V19.3125Z" fill="#505081"/>
<path d="M48.2812 25.75H80.4688V28.9688H48.2812V25.75Z" fill="#505081"/>
<path d="M86.9062 25.75H93.3438V28.9688H86.9062V25.75Z" fill="#505081"/>
<path d="M9.65625 32.1875H25.75V35.4062H9.65625V32.1875Z" fill="#505081"/>
<path d="M32.1875 32.1875H62.7656V35.4062H32.1875V32.1875Z" fill="#505081"/>
<path d="M67.5938 32.1875H93.3438V35.4062H67.5938V32.1875Z" fill="#505081"/>
<path d="M9.65625 38.625H35.4062V41.8438H9.65625V38.625Z" fill="#505081"/>
<path d="M9.65625 45.0625H22.5312V48.2812H9.65625V45.0625Z" fill="#505081"/>
<path d="M25.75 45.0625H32.1875V48.2812H25.75V45.0625Z" fill="#505081"/>
</svg>
