<svg width="103" height="103" viewBox="0 0 103 103" fill="none" xmlns="http://www.w3.org/2000/svg">
<path d="M73.0968 96.3548H98.6591L92.097 76.6669C90.3809 71.5185 86.0017 67.7009 80.6673 66.7008L63.129 63.4114V59.3529C67.3304 56.3211 70.2958 51.7027 71.1564 46.3766C75.077 45.7137 78.0807 42.3164 78.0807 38.2097V26.5806C78.0807 11.9247 66.1559 0 51.5 0C36.8441 0 24.9193 11.9247 24.9193 26.5806V38.2097C24.9193 42.3114 27.908 45.7287 31.822 46.3982C32.6859 51.7243 35.6679 56.3476 39.871 59.3778V63.4131L22.3311 66.7025C16.9983 67.7026 12.6175 71.5202 10.9014 76.6685L4.34094 96.3548H29.9032V93.0323H25.3862L28.1921 81.8053L24.9692 81.0012L21.9606 93.0323H8.94936L14.0545 77.7185C15.3885 73.7148 18.7958 70.7444 22.9441 69.9652L33.5265 67.9817L36.2327 80.1556C34.4651 80.9231 33.2258 82.6808 33.2258 84.7258V98.0161C33.2258 100.764 35.4619 103 38.2097 103H64.7903C67.5381 103 69.7742 100.764 69.7742 98.0161V84.7258C69.7742 82.6808 68.5349 80.9231 66.7689 80.1556L69.4752 67.9817L80.0576 69.9652C84.2058 70.7444 87.6115 73.7148 88.9472 77.7185L94.0506 93.0323H81.0394L78.0308 81.0012L74.8079 81.8053L77.6138 93.0323H73.0968V96.3548ZM66.2074 67.3686L63.9132 77.6919L62.7652 73.0968H55.5104L62.0226 66.5845L66.2074 67.3686ZM61.0009 79.7419H41.9991L42.8297 76.4193H60.1703L61.0009 79.7419ZM51.5 72.409L43.1936 64.1025V61.3016C45.7254 62.4678 48.5346 63.129 51.5 63.129C54.4671 63.129 57.2746 62.4595 59.8065 61.2933V64.1025L51.5 72.409ZM71.4355 42.8879V33.5331C73.3643 34.2209 74.7581 36.0483 74.7581 38.2113C74.7581 40.3743 73.3643 42.2001 71.4355 42.8879ZM31.5645 42.9095C29.6308 42.2234 28.2419 40.376 28.2419 38.2097C28.2419 36.0434 29.6308 34.196 31.5645 33.5099V42.9095ZM28.2419 31.6077V26.5806C28.2419 13.7555 38.6748 3.32258 51.5 3.32258C64.3252 3.32258 74.7581 13.7555 74.7581 26.5806V31.6077C73.7746 30.8634 72.6383 30.3136 71.3823 30.066C71.1215 28.104 69.4569 26.5806 67.4251 26.5806C66.3702 26.5806 65.3369 27.0093 64.5062 27.8399C61.7003 30.6458 58.1452 32.435 54.2943 33.0165L54.4006 32.8038C54.6764 32.249 54.8226 31.6293 54.8226 31.0096V30.591C54.8226 28.3798 53.0234 26.5806 50.8122 26.5806C49.7573 26.5806 48.724 27.0093 47.9764 27.7552C44.4761 31.2539 39.8328 33.1942 34.8871 33.2258V29.9032H33.2258C31.3485 29.9032 29.6341 30.5528 28.2419 31.6077ZM34.8871 43.1935V36.5484C40.7199 36.5168 46.1988 34.2309 50.3238 30.1059C50.7242 29.7039 51.5 30.0311 51.5 30.591V31.0096C51.5 31.116 51.4751 31.2223 51.4269 31.3186L48.812 36.5484H51.5C57.3012 36.5484 62.7536 34.2907 66.9367 30.1059C67.3387 29.7039 68.1129 30.0311 68.1129 30.591V43.1935C68.1129 52.3539 60.6604 59.8064 51.5 59.8064C42.3396 59.8064 34.8871 52.3539 34.8871 43.1935ZM40.9774 66.5845L47.4896 73.0968H40.2348L39.0868 77.6919L36.7926 67.3686L40.9774 66.5845ZM38.2097 99.6774C37.2943 99.6774 36.5484 98.9332 36.5484 98.0161V84.7258C36.5484 83.8088 37.2943 83.0645 38.2097 83.0645H43.378C41.2166 85.1777 39.871 88.1182 39.871 91.371C39.871 94.6238 41.2166 97.5643 43.378 99.6774H38.2097ZM51.5 99.6774C46.9198 99.6774 43.1936 95.9511 43.1936 91.371C43.1936 86.7908 46.9198 83.0645 51.5 83.0645C56.0802 83.0645 59.8065 86.7908 59.8065 91.371C59.8065 95.9511 56.0802 99.6774 51.5 99.6774ZM66.4516 98.0161C66.4516 98.9332 65.7057 99.6774 64.7903 99.6774H59.6221C61.7834 97.5643 63.129 94.6238 63.129 91.371C63.129 88.1182 61.7834 85.1777 59.6221 83.0645H64.7903C65.7057 83.0645 66.4516 83.8088 66.4516 84.7258V98.0161Z" fill="#505081"/>
<path d="M51.5 86.3871C48.7522 86.3871 46.5161 88.6232 46.5161 91.371C46.5161 94.1187 48.7522 96.3548 51.5 96.3548C54.2478 96.3548 56.4839 94.1187 56.4839 91.371C56.4839 88.6232 54.2478 86.3871 51.5 86.3871ZM51.5 93.0323C50.5846 93.0323 49.8387 92.288 49.8387 91.371C49.8387 90.4539 50.5846 89.7097 51.5 89.7097C52.4154 89.7097 53.1613 90.4539 53.1613 91.371C53.1613 92.288 52.4154 93.0323 51.5 93.0323Z" fill="#505081"/>
</svg>
